<svg width="50" height="50" viewBox="0 0 50 50" fill="none" xmlns="http://www.w3.org/2000/svg">
<path d="M11.4583 8.33333V4.6875M19.7916 8.33333V4.6875M28.125 8.33333V4.6875M4.16663 25H36.4791M37.0625 21.8125V37.0625C37.0625 39.3887 36.1384 41.6196 34.4935 43.2644C32.8487 44.9093 30.6178 45.8333 28.2916 45.8333H12.9375C8.10413 45.8333 4.16663 41.8958 4.16663 37.0625V21.8125C4.16663 19.4863 5.09069 17.2554 6.73554 15.6106C8.38039 13.9657 10.6113 13.0417 12.9375 13.0417H28.2916C33.125 13.0417 37.0625 16.9792 37.0625 21.8125ZM45.8333 27.4167C45.8333 32.25 41.8958 36.1875 37.0625 36.1875V18.6458C38.2143 18.6458 39.3548 18.8727 40.4189 19.3135C41.483 19.7542 42.4499 20.4003 43.2644 21.2148C44.0788 22.0292 44.7249 22.9961 45.1657 24.0602C45.6064 25.1243 45.8333 26.2649 45.8333 27.4167Z" stroke="#33EA92" stroke-width="2" stroke-linecap="round" stroke-linejoin="round"/>
</svg>
